HIERARCHY
ROOT root
{
	OFFSET	0	13.1	24.9
	CHANNELS 6  Xposition Yposition Zposition Xrotation Yrotation Zrotation
	JOINT spine_1
	{
		OFFSET	0	9.99999	0
		CHANNELS 3  Xrotation Yrotation Zrotation
		JOINT spine_2
		{
			OFFSET	0	112	-10
			CHANNELS 3  Xrotation Yrotation Zrotation
			JOINT spine_3
			{
				OFFSET	0	206.5	19.3
				CHANNELS 3  Xrotation Yrotation Zrotation
				JOINT spine_4
				{
					OFFSET	0	110.4	14.6
					CHANNELS 3  Xrotation Yrotation Zrotation
					JOINT neck_1
					{
						OFFSET	0	71.8	-50.3
						CHANNELS 3  Xrotation Yrotation Zrotation
						JOINT neck_2
						{
							OFFSET	0	86.2	-25.8
							CHANNELS 3  Xrotation Yrotation Zrotation
							JOINT head_ee
							{
								OFFSET	0	179.8	-8.7
								CHANNELS 3  Xrotation Yrotation Zrotation
								End Site
								{
									OFFSET	1	0	0
								}
							}
						}
					}
					JOINT left_clavicle
					{
						OFFSET	-43.2	22.4	-70.8
						CHANNELS 3  Xrotation Yrotation Zrotation
						JOINT left_shoulder
						{
							OFFSET	-93.9	-5.79999	48.7
							CHANNELS 3  Xrotation Yrotation Zrotation
							JOINT left_elbow
							{
								OFFSET	-291.4	-30.8	15.2
								CHANNELS 3  Xrotation Yrotation Zrotation
								JOINT left_lowarm_twist
								{
									OFFSET	-110.7	-3.89999	13.6
									CHANNELS 3  Xrotation Yrotation Zrotation
									JOINT left_hand
									{
										OFFSET	-110.7	-3.89999	13.6
										CHANNELS 3  Xrotation Yrotation Zrotation
										JOINT left_ee
										{
											OFFSET	-80.8	-5.10001	12.1
											CHANNELS 3  Xrotation Yrotation Zrotation
											End Site
											{
												OFFSET	1	0	0
											}
										}
									}
								}
							}
						}
					}
					JOINT right_clavicle
					{
						OFFSET	43.2	22.4	-70.8
						CHANNELS 3  Xrotation Yrotation Zrotation
						JOINT right_shoulder
						{
							OFFSET	93.9	-5.79999	48.7
							CHANNELS 3  Xrotation Yrotation Zrotation
							JOINT right_elbow
							{
								OFFSET	291.4	-30.8	15.2
								CHANNELS 3  Xrotation Yrotation Zrotation
								JOINT right_lowarm_twist
								{
									OFFSET	110.7	-3.89999	13.6
									CHANNELS 3  Xrotation Yrotation Zrotation
									JOINT right_hand
									{
										OFFSET	110.7	-3.89999	13.6
										CHANNELS 3  Xrotation Yrotation Zrotation
										JOINT right_ee
										{
											OFFSET	80.8	-5.10001	12.1
											CHANNELS 3  Xrotation Yrotation Zrotation
											End Site
											{
												OFFSET	1	0	0
											}
										}
									}
								}
							}
						}
					}
				}
			}
		}
	}
	JOINT left_hip
	{
		OFFSET	-82.8	-127.5	0.300001
		CHANNELS 3  Xrotation Yrotation Zrotation
		JOINT left_knee
		{
			OFFSET	-28.2	-396.7	2.2
			CHANNELS 3  Xrotation Yrotation Zrotation
			JOINT left_ankle
			{
				OFFSET	-11.7	-411.3	35.4
				CHANNELS 3  Xrotation Yrotation Zrotation
				JOINT left_toes
				{
					OFFSET	0	-60	-88.6
					CHANNELS 3  Xrotation Yrotation Zrotation
					JOINT left_foot_ee
					{
						OFFSET	-22.5	-16.5	-42.2
						CHANNELS 3  Xrotation Yrotation Zrotation
						End Site
						{
							OFFSET	1	0	0
						}
					}
				}
			}
		}
	}
	JOINT right_hip
	{
		OFFSET	82.8	-127.5	0.300001
		CHANNELS 3  Xrotation Yrotation Zrotation
		JOINT right_knee
		{
			OFFSET	28.2	-396.7	2.2
			CHANNELS 3  Xrotation Yrotation Zrotation
			JOINT right_ankle
			{
				OFFSET	11.7	-411.3	35.4
				CHANNELS 3  Xrotation Yrotation Zrotation
				JOINT right_toes
				{
					OFFSET	0	-60	-88.6
					CHANNELS 3  Xrotation Yrotation Zrotation
					JOINT right_foot_ee
					{
						OFFSET	22.5	-16.5	-42.2
						CHANNELS 3  Xrotation Yrotation Zrotation
						End Site
						{
							OFFSET	1	0	0
						}
					}
				}
			}
		}
	}
}
MOTION
Frames: 8
Frame Time: 0.02
2749.24 734.512 -1379.95 -2.99336 63.1686 0.825604 -0.561309 -0.190023 0.349875 -0.561266 -0.211901 0.337074 -0.56253 -0.280801 0.282262 -0.562566 -0.232699 0.323067 -13.0211 16.9174 4.68269 -13.5725 29.3189 9.73216 -0.0 0.0 -0.0 6.94908 16.1914 12.9584 -5.71751 -21.3983 56.4028 1.13487 -29.3428 0.29713 -16.2032 -0.84363 1.8854 -0.70237 15.98 2.19341 -0.0 0.0 -0.0 11.0119 20.2798 -21.6613 -14.6281 16.4884 -57.9851 0.972892 25.7309 -0.22221 54.8639 1.3386 6.61447 1.14125 -12.4023 -12.4129 0.0 0.0 0.0 8.2263 -9.75793 8.22745 -10.5341 0.288363 1.58864 27.1067 19.7803 -3.66946 13.5018 -0.0 -0.0 -0.0 0.0 -0.0 11.1749 36.8552 4.08178 -49.0234 1.13819 -7.21176 32.4165 3.40228 4.1953 9.0949 -0.0 -0.0 0.0 0.0 0.0 
2728.46 734.409 -1377.19 -2.22721 60.861 0.0529144 -0.385111 -0.000720328 0.274639 -0.38507 -0.0181948 0.274036 -0.385137 -0.0771584 0.263578 -0.385232 -0.0345629 0.272456 -13.1329 16.7847 3.97394 -13.7253 29.5202 9.0638 -0.0 0.0 -0.0 6.96858 16.2028 12.9895 -5.46044 -20.5836 56.2075 1.24187 -31.598 0.351403 -16.319 -0.85154 1.89794 -1.06999 14.6623 -0.646492 -0.0 0.0 -0.0 10.9117 19.4534 -21.4928 -16.331 15.1113 -57.9134 0.865569 23.2083 -0.177745 54.4376 1.3045 6.57181 0.432779 -13.5334 -8.29292 0.0 0.0 0.0 4.79078 -6.89285 10.1706 -12.8094 0.312001 1.93695 27.1853 18.891 -3.66566 13.1284 -0.0 -0.0 -0.0 0.0 -0.0 15.1403 33.7309 2.20588 -48.8862 1.12655 -7.19411 27.5199 -0.342937 3.63742 8.70437 -0.0 -0.0 0.0 0.0 0.0 
2709.26 733.622 -1376.58 -0.21446 59.8935 -2.09568 -0.182231 -0.0282214 0.260253 -0.182195 -0.0447247 0.25793 -0.182385 -0.0987094 0.242455 -0.182462 -0.0591795 0.255002 -14.2397 16.3487 4.30116 -14.8898 28.6534 9.52718 -0.0 0.0 -0.0 6.66468 15.4694 12.5353 -5.22691 -20.1998 55.3807 1.29406 -32.6599 0.379157 -16.6901 -0.877069 1.938 -1.1049 13.6053 -1.33196 -0.0 0.0 -0.0 10.541 18.7562 -20.7026 -17.3608 14.0864 -57.9154 0.802317 21.675 -0.153597 54.3142 1.29468 6.55941 0.388765 -13.2506 -7.90594 0.0 0.0 0.0 1.90801 -6.46865 11.8569 -12.5639 0.310117 1.89932 27.9225 19.3493 -3.75761 13.4882 -0.0 -0.0 -0.0 0.0 -0.0 18.5172 32.8153 0.234385 -48.0512 1.05671 -7.08619 24.9098 -2.93515 3.32726 8.75193 -0.0 -0.0 0.0 0.0 0.0 
2693.29 736.79 -1376.08 0.176228 57.3552 -2.87795 0.0525263 0.31647 0.312751 0.052532 0.295928 0.332254 0.0543012 0.219858 0.386818 0.0542006 0.278189 0.347242 -15.5543 16.4115 5.77682 -16.2496 28.1105 11.2739 -0.0 0.0 -0.0 6.42121 15.0069 12.157 -4.81092 -19.8802 55.0016 1.48157 -36.2737 0.485332 -17.0261 -0.900409 1.97414 -1.32446 12.3279 -3.28654 -0.0 0.0 -0.0 10.8706 18.9495 -21.4334 -18.246 13.2623 -57.7618 0.584906 16.1589 -0.083031 54.1923 1.28501 6.54715 0.0831025 -14.2164 -6.35243 0.0 0.0 0.0 0.584691 -5.54912 12.9589 -12.6996 0.311179 1.92012 27.4505 19.815 -3.71006 11.6672 -0.0 -0.0 -0.0 0.0 -0.0 19.611 31.1329 -0.202995 -43.4558 0.701129 -6.47515 20.2135 -6.03213 2.75761 8.37303 -0.0 -0.0 0.0 0.0 0.0 
2683.25 740.885 -1377.78 -1.85746 56.7069 -1.29015 0.0919171 0.238542 0.521659 0.092045 0.204865 0.53578 0.0940707 0.0886172 0.566724 0.0936665 0.177007 0.545617 -15.2185 16.5645 3.78312 -16.0349 29.508 9.42749 -0.0 0.0 -0.0 6.35752 16.8593 11.9595 -3.02213 -19.9646 54.0551 1.76015 -41.0823 0.659579 -20.1461 -1.12717 2.30303 -1.94754 12.9169 -6.95191 -0.0 0.0 -0.0 10.5884 17.8436 -20.8651 -18.6944 12.0031 -58.3723 0.653138 17.9288 -0.103032 54.5625 1.31445 6.58433 -0.42682 -14.9908 -3.48289 0.0 0.0 0.0 0.669913 -4.59447 13.5815 -10.4978 0.287874 1.5831 26.2926 20.2474 -3.58075 11.2406 -0.0 -0.0 -0.0 0.0 -0.0 21.8881 32.5427 -1.98986 -38.7669 0.390189 -5.82489 17.6321 -6.48811 2.43323 7.23182 -0.0 -0.0 0.0 0.0 0.0 
2678.36 740.27 -1378.94 -3.13119 54.8255 0.126492 0.135524 0.490079 0.577098 0.135596 0.452365 0.607112 0.140558 0.316374 0.68784 0.140145 0.421033 0.629245 -16.3075 16.8186 4.08461 -17.2669 29.9627 10.1425 -0.0 0.0 -0.0 6.28549 17.3832 11.8164 -1.14878 -20.1353 53.1583 2.0108 -44.8828 0.830564 -21.6397 -1.24201 2.45603 -2.38932 12.9044 -9.76857 -0.0 0.0 -0.0 10.906 18.697 -21.5295 -18.6294 11.2004 -58.308 0.502277 13.9724 -0.0615495 54.7404 1.32869 6.60214 -0.848105 -15.9232 -1.27318 0.0 0.0 0.0 -0.210722 -4.92325 13.6155 -8.13346 0.24845 1.22247 25.975 21.796 -3.5677 10.9928 -0.0 -0.0 -0.0 0.0 -0.0 24.3812 31.295 -3.36914 -32.9223 0.0789148 -4.98298 13.8342 -7.89492 1.93893 5.93424 -0.0 -0.0 0.0 0.0 0.0 
2674.95 742.852 -1376.44 -3.77847 54.3115 0.531851 0.136675 0.503196 0.659104 0.136798 0.460237 0.689787 0.142551 0.30693 0.770333 0.141974 0.424735 0.712196 -17.5143 17.3861 4.65 -18.6744 30.893 11.2952 -0.0 0.0 -0.0 6.25942 16.7124 11.8093 -0.0778813 -20.3818 52.0714 2.33055 -49.0943 1.06452 -23.3598 -1.37918 2.62851 -2.39802 10.7421 -10.9198 -0.0 0.0 -0.0 11.2035 20.2368 -22.099 -18.8571 11.0659 -58.2429 0.411903 11.5328 -0.0415958 55.0468 1.35333 6.6327 -1.44291 -20.8884 0.114252 0.0 0.0 0.0 -0.481767 -4.21686 13.901 -5.29494 0.181509 0.792057 23.7706 26.3239 -3.381 9.56112 -0.0 -0.0 -0.0 0.0 -0.0 26.658 30.094 -3.33765 -26.1201 -0.173014 -3.97007 9.689 -8.57608 1.37877 3.10754 -0.0 -0.0 0.0 0.0 0.0 
2663.97 743.373 -1375.59 -3.80962 53.664 0.590221 0.211905 0.59748 0.774098 0.212072 0.547013 0.810546 0.220096 0.367974 0.905977 0.219308 0.506433 0.836499 -16.4585 18.1994 5.18303 -17.5676 32.025 11.788 -0.0 0.0 -0.0 6.28024 16.6609 11.8454 1.31044 -20.3117 51.624 2.49711 -51.0395 1.19226 -24.2237 -1.45002 2.71358 -2.67055 10.9488 -12.5914 -0.0 0.0 -0.0 11.1721 20.7526 -21.9892 -19.5685 9.91645 -58.1504 0.34387 9.66736 -0.0290792 55.2472 1.36954 6.65262 -1.74377 -21.9566 1.37949 0.0 0.0 0.0 -1.2984 -4.68265 14.6253 -4.64199 0.163098 0.693543 24.2452 27.0277 -3.45644 8.8809 -0.0 -0.0 -0.0 0.0 -0.0 28.0249 28.939 -4.94001 -22.3774 -0.259827 -3.40238 8.24047 -9.39426 1.1786 2.22105 -0.0 -0.0 0.0 0.0 0.0 
